<svg width="1366" height="320" viewBox="0 0 1366 320" fill="none" xmlns="http://www.w3.org/2000/svg">
<rect y="-26.9297" width="65.0476" height="65.0476" stroke="white" stroke-opacity="0.02" stroke-width="1.30095"/>
<rect x="65.0475" y="-26.9297" width="65.0476" height="65.0476" stroke="white" stroke-opacity="0.02" stroke-width="1.30095"/>
<rect x="130.095" y="-26.9297" width="65.0476" height="65.0476" stroke="white" stroke-opacity="0.02" stroke-width="1.30095"/>
<rect x="195.143" y="-26.9297" width="65.0476" height="65.0476" fill="white" fill-opacity="0.01" stroke="white" stroke-opacity="0.02" stroke-width="1.30095"/>
<rect x="260.191" y="-26.9297" width="65.0476" height="65.0476" stroke="white" stroke-opacity="0.02" stroke-width="1.30095"/>
<rect x="325.238" y="-26.9297" width="65.0476" height="65.0476" stroke="white" stroke-opacity="0.02" stroke-width="1.30095"/>
<rect x="390.286" y="-26.9297" width="65.0476" height="65.0476" stroke="white" stroke-opacity="0.02" stroke-width="1.30095"/>
<rect x="455.333" y="-26.9297" width="65.0476" height="65.0476" stroke="white" stroke-opacity="0.02" stroke-width="1.30095"/>
<rect x="520.381" y="-26.9297" width="65.0476" height="65.0476" stroke="white" stroke-opacity="0.02" stroke-width="1.30095"/>
<rect x="585.428" y="-26.9297" width="65.0476" height="65.0476" stroke="white" stroke-opacity="0.02" stroke-width="1.30095"/>
<rect x="650.476" y="-26.9297" width="65.0476" height="65.0476" stroke="white" stroke-opacity="0.02" stroke-width="1.30095"/>
<rect x="715.524" y="-26.9297" width="65.0476" height="65.0476" stroke="white" stroke-opacity="0.02" stroke-width="1.30095"/>
<rect x="780.571" y="-26.9297" width="65.0476" height="65.0476" fill="white" fill-opacity="0.01" stroke="white" stroke-opacity="0.02" stroke-width="1.30095"/>
<rect x="845.619" y="-26.9297" width="65.0476" height="65.0476" stroke="white" stroke-opacity="0.02" stroke-width="1.30095"/>
<rect x="910.667" y="-26.9297" width="65.0476" height="65.0476" stroke="white" stroke-opacity="0.02" stroke-width="1.30095"/>
<rect x="975.714" y="-26.9297" width="65.0476" height="65.0476" stroke="white" stroke-opacity="0.02" stroke-width="1.30095"/>
<rect x="1040.76" y="-26.9297" width="65.0476" height="65.0476" stroke="white" stroke-opacity="0.02" stroke-width="1.30095"/>
<rect x="1105.81" y="-26.9297" width="65.0476" height="65.0476" stroke="white" stroke-opacity="0.02" stroke-width="1.30095"/>
<rect x="1170.86" y="-26.9297" width="65.0476" height="65.0476" stroke="white" stroke-opacity="0.02" stroke-width="1.30095"/>
<rect x="1235.91" y="-26.9297" width="65.0476" height="65.0476" stroke="white" stroke-opacity="0.02" stroke-width="1.30095"/>
<rect x="1300.95" y="-26.9297" width="65.0476" height="65.0476" stroke="white" stroke-opacity="0.02" stroke-width="1.30095"/>
<rect y="38.1177" width="65.0476" height="65.0476" stroke="white" stroke-opacity="0.02" stroke-width="1.30095"/>
<rect x="65.0475" y="38.1177" width="65.0476" height="65.0476" stroke="white" stroke-opacity="0.02" stroke-width="1.30095"/>
<rect x="130.095" y="38.1177" width="65.0476" height="65.0476" stroke="white" stroke-opacity="0.02" stroke-width="1.30095"/>
<rect x="195.143" y="38.1177" width="65.0476" height="65.0476" stroke="white" stroke-opacity="0.02" stroke-width="1.30095"/>
<rect x="260.191" y="38.1177" width="65.0476" height="65.0476" stroke="white" stroke-opacity="0.02" stroke-width="1.30095"/>
<rect x="325.238" y="38.1179" width="65.0476" height="65.0476" stroke="white" stroke-opacity="0.02" stroke-width="1.30095"/>
<rect x="390.286" y="38.1179" width="65.0476" height="65.0476" stroke="white" stroke-opacity="0.02" stroke-width="1.30095"/>
<rect x="455.333" y="38.1179" width="65.0476" height="65.0476" stroke="white" stroke-opacity="0.02" stroke-width="1.30095"/>
<rect x="520.381" y="38.1177" width="65.0476" height="65.0476" stroke="white" stroke-opacity="0.02" stroke-width="1.30095"/>
<rect x="585.428" y="38.1177" width="65.0476" height="65.0476" stroke="white" stroke-opacity="0.02" stroke-width="1.30095"/>
<rect x="650.476" y="38.1177" width="65.0476" height="65.0476" stroke="white" stroke-opacity="0.02" stroke-width="1.30095"/>
<rect x="715.524" y="38.1177" width="65.0476" height="65.0476" stroke="white" stroke-opacity="0.02" stroke-width="1.30095"/>
<rect x="780.571" y="38.1177" width="65.0476" height="65.0476" stroke="white" stroke-opacity="0.02" stroke-width="1.30095"/>
<rect x="845.619" y="38.1177" width="65.0476" height="65.0476" stroke="white" stroke-opacity="0.02" stroke-width="1.30095"/>
<rect x="910.667" y="38.1177" width="65.0476" height="65.0476" stroke="white" stroke-opacity="0.02" stroke-width="1.30095"/>
<rect x="975.714" y="38.1179" width="65.0476" height="65.0476" stroke="white" stroke-opacity="0.02" stroke-width="1.30095"/>
<rect x="1040.76" y="38.1177" width="65.0476" height="65.0476" stroke="white" stroke-opacity="0.02" stroke-width="1.30095"/>
<rect x="1105.81" y="38.1177" width="65.0476" height="65.0476" stroke="white" stroke-opacity="0.02" stroke-width="1.30095"/>
<rect x="1170.86" y="38.1177" width="65.0476" height="65.0476" fill="white" fill-opacity="0.01" stroke="white" stroke-opacity="0.02" stroke-width="1.30095"/>
<rect x="1235.91" y="38.1179" width="65.0476" height="65.0476" stroke="white" stroke-opacity="0.02" stroke-width="1.30095"/>
<rect x="1300.95" y="38.1177" width="65.0476" height="65.0476" stroke="white" stroke-opacity="0.02" stroke-width="1.30095"/>
<rect y="103.166" width="65.0476" height="65.0476" stroke="white" stroke-opacity="0.02" stroke-width="1.30095"/>
<rect x="65.0475" y="103.166" width="65.0476" height="65.0476" stroke="white" stroke-opacity="0.02" stroke-width="1.30095"/>
<rect x="130.095" y="103.166" width="65.0476" height="65.0476" stroke="white" stroke-opacity="0.02" stroke-width="1.30095"/>
<rect x="195.143" y="103.166" width="65.0476" height="65.0476" stroke="white" stroke-opacity="0.02" stroke-width="1.30095"/>
<rect x="260.191" y="103.166" width="65.0476" height="65.0476" stroke="white" stroke-opacity="0.02" stroke-width="1.30095"/>
<rect x="325.238" y="103.166" width="65.0476" height="65.0476" stroke="white" stroke-opacity="0.02" stroke-width="1.30095"/>
<rect x="390.286" y="103.166" width="65.0476" height="65.0476" stroke="white" stroke-opacity="0.02" stroke-width="1.30095"/>
<rect x="455.333" y="103.166" width="65.0476" height="65.0476" stroke="white" stroke-opacity="0.02" stroke-width="1.30095"/>
<rect x="520.381" y="103.166" width="65.0476" height="65.0476" stroke="white" stroke-opacity="0.02" stroke-width="1.30095"/>
<rect x="585.428" y="103.166" width="65.0476" height="65.0476" stroke="white" stroke-opacity="0.02" stroke-width="1.30095"/>
<rect x="650.476" y="103.166" width="65.0476" height="65.0476" stroke="white" stroke-opacity="0.02" stroke-width="1.30095"/>
<rect x="715.524" y="103.166" width="65.0476" height="65.0476" stroke="white" stroke-opacity="0.02" stroke-width="1.30095"/>
<rect x="780.571" y="103.166" width="65.0476" height="65.0476" stroke="white" stroke-opacity="0.02" stroke-width="1.30095"/>
<rect x="845.619" y="103.166" width="65.0476" height="65.0476" stroke="white" stroke-opacity="0.02" stroke-width="1.30095"/>
<rect x="910.667" y="103.166" width="65.0476" height="65.0476" stroke="white" stroke-opacity="0.02" stroke-width="1.30095"/>
<rect x="975.714" y="103.166" width="65.0476" height="65.0476" stroke="white" stroke-opacity="0.02" stroke-width="1.30095"/>
<rect x="1040.76" y="103.166" width="65.0476" height="65.0476" stroke="white" stroke-opacity="0.02" stroke-width="1.30095"/>
<rect x="1105.81" y="103.166" width="65.0476" height="65.0476" stroke="white" stroke-opacity="0.02" stroke-width="1.30095"/>
<rect x="1170.86" y="103.166" width="65.0476" height="65.0476" stroke="white" stroke-opacity="0.02" stroke-width="1.30095"/>
<rect x="1235.91" y="103.166" width="65.0476" height="65.0476" stroke="white" stroke-opacity="0.02" stroke-width="1.30095"/>
<rect x="1300.95" y="103.166" width="65.0476" height="65.0476" stroke="white" stroke-opacity="0.02" stroke-width="1.30095"/>
<rect y="168.213" width="65.0476" height="65.0476" stroke="white" stroke-opacity="0.02" stroke-width="1.30095"/>
<rect x="65.0475" y="168.213" width="65.0476" height="65.0476" stroke="white" stroke-opacity="0.02" stroke-width="1.30095"/>
<rect x="130.095" y="168.213" width="65.0476" height="65.0476" stroke="white" stroke-opacity="0.02" stroke-width="1.30095"/>
<rect x="195.143" y="168.213" width="65.0476" height="65.0476" stroke="white" stroke-opacity="0.02" stroke-width="1.30095"/>
<rect x="260.191" y="168.213" width="65.0476" height="65.0476" stroke="white" stroke-opacity="0.02" stroke-width="1.30095"/>
<rect x="325.238" y="168.213" width="65.0476" height="65.0476" stroke="white" stroke-opacity="0.02" stroke-width="1.30095"/>
<rect x="390.286" y="168.213" width="65.0476" height="65.0476" stroke="white" stroke-opacity="0.02" stroke-width="1.30095"/>
<rect x="455.333" y="168.213" width="65.0476" height="65.0476" stroke="white" stroke-opacity="0.02" stroke-width="1.30095"/>
<rect x="520.381" y="168.213" width="65.0476" height="65.0476" fill="white" fill-opacity="0.01" stroke="white" stroke-opacity="0.02" stroke-width="1.30095"/>
<rect x="585.428" y="168.213" width="65.0476" height="65.0476" stroke="white" stroke-opacity="0.02" stroke-width="1.30095"/>
<rect x="650.476" y="168.213" width="65.0476" height="65.0476" stroke="white" stroke-opacity="0.02" stroke-width="1.30095"/>
<rect x="715.524" y="168.213" width="65.0476" height="65.0476" stroke="white" stroke-opacity="0.02" stroke-width="1.30095"/>
<rect x="780.571" y="168.213" width="65.0476" height="65.0476" stroke="white" stroke-opacity="0.02" stroke-width="1.30095"/>
<rect x="845.619" y="168.213" width="65.0476" height="65.0476" stroke="white" stroke-opacity="0.02" stroke-width="1.30095"/>
<rect x="910.667" y="168.213" width="65.0476" height="65.0476" stroke="white" stroke-opacity="0.02" stroke-width="1.30095"/>
<rect x="975.714" y="168.213" width="65.0476" height="65.0476" stroke="white" stroke-opacity="0.02" stroke-width="1.30095"/>
<rect x="1040.76" y="168.213" width="65.0476" height="65.0476" stroke="white" stroke-opacity="0.02" stroke-width="1.30095"/>
<rect x="1105.81" y="168.213" width="65.0476" height="65.0476" stroke="white" stroke-opacity="0.02" stroke-width="1.30095"/>
<rect x="1170.86" y="168.213" width="65.0476" height="65.0476" stroke="white" stroke-opacity="0.02" stroke-width="1.30095"/>
<rect x="1235.91" y="168.213" width="65.0476" height="65.0476" stroke="white" stroke-opacity="0.02" stroke-width="1.30095"/>
<rect x="1300.95" y="168.213" width="65.0476" height="65.0476" stroke="white" stroke-opacity="0.02" stroke-width="1.30095"/>
<rect y="233.26" width="65.0476" height="65.0476" stroke="white" stroke-opacity="0.02" stroke-width="1.30095"/>
<rect x="65.0475" y="233.26" width="65.0476" height="65.0476" stroke="white" stroke-opacity="0.02" stroke-width="1.30095"/>
<rect x="130.095" y="233.26" width="65.0476" height="65.0476" stroke="white" stroke-opacity="0.02" stroke-width="1.30095"/>
<rect x="195.143" y="233.26" width="65.0476" height="65.0476" stroke="white" stroke-opacity="0.02" stroke-width="1.30095"/>
<rect x="260.191" y="233.26" width="65.0476" height="65.0476" fill="white" fill-opacity="0.01" stroke="white" stroke-opacity="0.02" stroke-width="1.30095"/>
<rect x="325.238" y="233.26" width="65.0476" height="65.0476" stroke="white" stroke-opacity="0.02" stroke-width="1.30095"/>
<rect x="390.286" y="233.26" width="65.0476" height="65.0476" stroke="white" stroke-opacity="0.02" stroke-width="1.30095"/>
<rect x="455.333" y="233.26" width="65.0476" height="65.0476" stroke="white" stroke-opacity="0.02" stroke-width="1.30095"/>
<rect x="520.381" y="233.26" width="65.0476" height="65.0476" stroke="white" stroke-opacity="0.02" stroke-width="1.30095"/>
<rect x="585.428" y="233.26" width="65.0476" height="65.0476" stroke="white" stroke-opacity="0.02" stroke-width="1.30095"/>
<rect x="650.476" y="233.26" width="65.0476" height="65.0476" stroke="white" stroke-opacity="0.02" stroke-width="1.30095"/>
<rect x="715.524" y="233.26" width="65.0476" height="65.0476" stroke="white" stroke-opacity="0.02" stroke-width="1.30095"/>
<rect x="780.571" y="233.26" width="65.0476" height="65.0476" stroke="white" stroke-opacity="0.02" stroke-width="1.30095"/>
<rect x="845.619" y="233.26" width="65.0476" height="65.0476" stroke="white" stroke-opacity="0.02" stroke-width="1.30095"/>
<rect x="910.667" y="233.26" width="65.0476" height="65.0476" stroke="white" stroke-opacity="0.02" stroke-width="1.30095"/>
<rect x="975.714" y="233.26" width="65.0476" height="65.0476" stroke="white" stroke-opacity="0.02" stroke-width="1.30095"/>
<rect x="1040.76" y="233.26" width="65.0476" height="65.0476" stroke="white" stroke-opacity="0.02" stroke-width="1.30095"/>
<rect x="1105.81" y="233.26" width="65.0476" height="65.0476" stroke="white" stroke-opacity="0.02" stroke-width="1.30095"/>
<rect x="1170.86" y="233.26" width="65.0476" height="65.0476" stroke="white" stroke-opacity="0.02" stroke-width="1.30095"/>
<rect x="1235.91" y="233.26" width="65.0476" height="65.0476" stroke="white" stroke-opacity="0.02" stroke-width="1.30095"/>
<rect x="1300.95" y="233.26" width="65.0476" height="65.0476" stroke="white" stroke-opacity="0.02" stroke-width="1.30095"/>
<rect y="298.309" width="65.0476" height="65.0476" stroke="white" stroke-opacity="0.02" stroke-width="1.30095"/>
<rect x="65.0475" y="298.309" width="65.0476" height="65.0476" stroke="white" stroke-opacity="0.02" stroke-width="1.30095"/>
<rect x="130.095" y="298.309" width="65.0476" height="65.0476" stroke="white" stroke-opacity="0.02" stroke-width="1.30095"/>
<rect x="195.143" y="298.309" width="65.0476" height="65.0476" stroke="white" stroke-opacity="0.02" stroke-width="1.30095"/>
<rect x="260.191" y="298.309" width="65.0476" height="65.0476" stroke="white" stroke-opacity="0.02" stroke-width="1.30095"/>
<rect x="325.238" y="298.309" width="65.0476" height="65.0476" stroke="white" stroke-opacity="0.02" stroke-width="1.30095"/>
<rect x="390.286" y="298.309" width="65.0476" height="65.0476" stroke="white" stroke-opacity="0.02" stroke-width="1.30095"/>
<rect x="455.333" y="298.309" width="65.0476" height="65.0476" stroke="white" stroke-opacity="0.02" stroke-width="1.30095"/>
<rect x="520.381" y="298.309" width="65.0476" height="65.0476" stroke="white" stroke-opacity="0.02" stroke-width="1.30095"/>
<rect x="585.428" y="298.309" width="65.0476" height="65.0476" stroke="white" stroke-opacity="0.02" stroke-width="1.30095"/>
<rect x="650.476" y="298.309" width="65.0476" height="65.0476" stroke="white" stroke-opacity="0.02" stroke-width="1.30095"/>
<rect x="715.524" y="298.309" width="65.0476" height="65.0476" stroke="white" stroke-opacity="0.02" stroke-width="1.30095"/>
<rect x="780.571" y="298.309" width="65.0476" height="65.0476" stroke="white" stroke-opacity="0.02" stroke-width="1.30095"/>
<rect x="845.619" y="298.309" width="65.0476" height="65.0476" stroke="white" stroke-opacity="0.02" stroke-width="1.30095"/>
<rect x="910.667" y="298.309" width="65.0476" height="65.0476" stroke="white" stroke-opacity="0.02" stroke-width="1.30095"/>
<rect x="975.714" y="298.309" width="65.0476" height="65.0476" stroke="white" stroke-opacity="0.02" stroke-width="1.30095"/>
<rect x="1040.76" y="298.309" width="65.0476" height="65.0476" stroke="white" stroke-opacity="0.02" stroke-width="1.30095"/>
<rect x="1105.81" y="298.309" width="65.0476" height="65.0476" stroke="white" stroke-opacity="0.02" stroke-width="1.30095"/>
<rect x="1170.86" y="298.309" width="65.0476" height="65.0476" stroke="white" stroke-opacity="0.02" stroke-width="1.30095"/>
<rect x="1235.91" y="298.309" width="65.0476" height="65.0476" stroke="white" stroke-opacity="0.02" stroke-width="1.30095"/>
<rect x="1300.95" y="298.309" width="65.0476" height="65.0476" stroke="white" stroke-opacity="0.02" stroke-width="1.30095"/>
</svg>
